<?xml version="1.0" standalone="no"?>
<!DOCTYPE svg PUBLIC "-//W3C//DTD SVG 20010904//EN"
 "http://www.w3.org/TR/2001/REC-SVG-20010904/DTD/svg10.dtd">
<svg version="1.0" xmlns="http://www.w3.org/2000/svg"
 width="700.000000pt" height="700.000000pt" viewBox="0 0 700.000000 700.000000"
 preserveAspectRatio="xMidYMid meet">
<metadata>
Created by potrace 1.14, written by Peter Selinger 2001-2017
</metadata>
<g transform="translate(0.000000,700.000000) scale(0.100000,-0.100000)"
fill="#000000" stroke="none">
<path d="M837 5544 c-1 -1 -27 -5 -57 -8 -212 -22 -392 -168 -463 -375 l-22
-66 -2 -1570 c-2 -1716 -4 -1638 57 -1760 79 -160 234 -273 411 -300 24 -4
929 -7 2010 -7 1531 0 1979 3 2025 12 217 46 368 200 432 440 2 8 4 231 5 495
1 264 6 479 10 478 9 -1 229 -176 257 -203 9 -9 34 -29 55 -45 22 -17 42 -32
45 -35 3 -3 115 -95 250 -204 135 -109 256 -208 270 -220 40 -35 112 -81 150
-97 56 -22 185 -18 242 9 93 43 159 121 184 217 18 66 21 2293 3 2374 -22 103
-92 190 -187 234 -70 32 -199 30 -267 -3 -37 -18 -390 -296 -620 -489 -11 -9
-67 -54 -125 -101 -58 -46 -107 -87 -110 -90 -11 -11 -147 -120 -151 -120 -2
0 -4 215 -5 478 0 364 -3 490 -14 532 -35 145 -154 297 -281 358 -141 69 15
64 -2147 66 -1075 0 -1954 0 -1955 0z"/>
</g>
</svg>
