<?xml version="1.0" encoding="UTF-8" standalone="no"?>
<!DOCTYPE svg PUBLIC "-//W3C//DTD SVG 1.1//EN" "http://www.w3.org/Graphics/SVG/1.1/DTD/svg11.dtd">
<svg width="100%" height="100%" viewBox="0 0 96 96" version="1.1" xmlns="http://www.w3.org/2000/svg" xmlns:xlink="http://www.w3.org/1999/xlink" xml:space="preserve" xmlns:serif="http://www.serif.com/" style="fill-rule:evenodd;clip-rule:evenodd;stroke-linejoin:round;stroke-miterlimit:2;">
    <path d="M71.793,39.713C71.793,39.713 78.882,33.952 84.662,29.254C86.009,28.159 87.866,27.937 89.434,28.683C91.001,29.429 92,31.01 92,32.746C92,41.513 92,54.487 92,63.254C92,64.99 91.001,66.571 89.434,67.317C87.866,68.063 86.009,67.841 84.662,66.746C78.882,62.048 71.793,56.287 71.793,56.287L71.793,68.484C71.793,72.635 68.428,76 64.277,76C51.235,76 24.559,76 11.516,76C7.365,76 4,72.635 4,68.484C4,57.772 4,38.228 4,27.516C4,23.365 7.365,20 11.516,20C24.559,20 51.235,20 64.277,20C68.428,20 71.793,23.365 71.793,27.516C71.793,33.086 71.793,39.713 71.793,39.713Z" style="fill:rgb(26,26,26);"/>
</svg>
