<svg width="512" height="512" viewBox="0 0 512 512" fill="none" xmlns="http://www.w3.org/2000/svg">
<rect width="512" height="512" fill="white"/>
<path fill-rule="evenodd" clip-rule="evenodd" d="M265.498 244.951C265.494 244.948 265.491 244.944 265.488 244.941C261.046 240.511 253.857 240.512 249.416 244.942L225.271 269.087C220.828 273.531 220.828 280.735 225.271 285.178L277.566 337.472C310.891 370.797 364.921 370.797 398.245 337.472C424.518 311.2 430.078 272.059 414.925 240.34L358.04 297.225L358.019 297.246C346.911 308.354 328.901 308.354 317.792 297.246L317.773 297.227L265.498 244.951Z" fill="#ADD8E6"/>
<path fill-rule="evenodd" clip-rule="evenodd" d="M197.113 136.34L116.66 216.793C83.3351 250.118 83.3351 304.148 116.66 337.472C142.932 363.745 182.073 369.305 213.793 354.152L156.899 297.258L156.886 297.246C145.778 286.138 145.778 268.128 156.886 257.019L237.339 176.566C248.448 165.458 266.458 165.458 277.566 176.566L329.86 228.861C334.304 233.304 341.508 233.304 345.951 228.861L337.906 236.906L370.087 204.725C374.53 200.282 374.53 193.078 370.087 188.634L317.844 136.391L317.792 136.34C284.468 103.015 230.438 103.015 197.113 136.34Z" fill="#4682B4"/>
</svg>
